<svg width="503" height="126" viewBox="0 0 503 126" fill="none" xmlns="http://www.w3.org/2000/svg">
<path d="M41.5826 59.7924C48.3014 54.4633 55.4462 49.6946 62.9451 45.5342L47.6185 0H44.0451C43.5696 0.000672981 43.1061 0.149644 42.7193 0.426142C42.3324 0.702641 42.0415 1.09292 41.8869 1.54259L10.1368 93.2478C18.9413 80.6304 29.5341 69.3607 41.5826 59.7924Z" fill="url(#paint0_linear)"/>
<path d="M0.202074 122.606C10.2355 99.6301 25.795 79.4917 45.4951 63.9842C65.1952 48.4768 88.4244 38.0816 113.114 33.7243C76.8552 53.1271 49.2214 85.4591 35.7025 124.297C35.549 124.741 35.2632 125.127 34.8836 125.402C34.504 125.678 34.0488 125.831 33.5797 125.84H2.30365C1.91982 125.842 1.54165 125.747 1.20386 125.565C0.866061 125.383 0.579456 125.119 0.370293 124.797C0.16113 124.475 0.036122 124.106 0.0067315 123.723C-0.022659 123.34 0.0445057 122.956 0.202074 122.606Z" fill="url(#paint1_linear)"/>
<path fill-rule="evenodd" clip-rule="evenodd" d="M93.2448 32.6276L82.4892 1.54259C82.3333 1.09235 82.0411 0.701863 81.653 0.425408C81.2649 0.148953 80.8004 0.000249851 80.3239 0H44.0381C44.5136 0.000672981 44.977 0.149644 45.3639 0.426142C45.7507 0.702641 46.0417 1.09292 46.1963 1.54259L48.1776 7.26001L61.6928 46.2489C71.6815 40.5705 82.2618 36.0029 93.2448 32.6276Z" fill="url(#paint2_linear)"/>
<path fill-rule="evenodd" clip-rule="evenodd" d="M124.45 122.769L98.9762 49.1784C88.8004 56.3646 79.5131 64.7327 71.309 74.1072L88.6806 124.29C88.8355 124.739 89.1267 125.129 89.5137 125.404C89.9006 125.679 90.3639 125.827 90.8388 125.826H122.292C122.659 125.827 123.021 125.74 123.347 125.571C123.673 125.403 123.954 125.158 124.166 124.859C124.377 124.559 124.514 124.212 124.563 123.849C124.613 123.485 124.574 123.115 124.45 122.769Z" fill="url(#paint3_linear)"/>
<g style="mix-blend-mode:multiply" opacity="0.25">
<path fill-rule="evenodd" clip-rule="evenodd" d="M61.6927 46.2489L48.1988 7.26001L46.2175 1.54259C46.0632 1.09384 45.7726 0.704463 45.3863 0.42882C45.0001 0.153176 44.5374 0.00500988 44.0628 0.00500988C43.5883 0.00500988 43.1256 0.153176 42.7393 0.42882C42.3531 0.704463 42.0625 1.09384 41.9082 1.54259L39.6155 8.06668C41.2289 7.26002 42.4955 7.35907 43.1536 9.2696L56.9306 49.0651L61.6927 46.2489Z" fill="#848484"/>
</g>
<path d="M210.45 27.9C210.179 27.2774 209.731 26.7477 209.163 26.3764C208.594 26.005 207.929 25.8081 207.25 25.81H188.67C187.991 25.8094 187.327 26.0068 186.758 26.378C186.19 26.7492 185.742 27.2782 185.47 27.9L145.1 120.46C144.869 120.992 144.774 121.573 144.824 122.15C144.874 122.728 145.067 123.284 145.385 123.768C145.704 124.252 146.138 124.65 146.649 124.924C147.159 125.198 147.73 125.341 148.31 125.34H159.45C160.14 125.34 160.815 125.136 161.39 124.754C161.965 124.371 162.414 123.827 162.68 123.19L169.94 105.67C170.205 105.032 170.654 104.487 171.229 104.105C171.804 103.722 172.479 103.519 173.17 103.52H213.43C214.014 103.518 214.588 103.371 215.101 103.09C215.613 102.81 216.047 102.406 216.363 101.915C216.679 101.423 216.867 100.861 216.91 100.279C216.954 99.6962 216.85 99.1123 216.61 98.58L211.05 86.36C210.774 85.748 210.327 85.2289 209.763 84.8651C209.199 84.5014 208.541 84.3086 207.87 84.31H184.87C184.289 84.3087 183.718 84.1631 183.208 83.8862C182.698 83.6093 182.265 83.2098 181.947 82.7238C181.63 82.2377 181.438 81.6804 181.39 81.1019C181.342 80.5235 181.438 79.942 181.67 79.41L194.67 49.7C194.944 49.0804 195.393 48.5538 195.961 48.1842C196.529 47.8145 197.192 47.6178 197.87 47.6178C198.548 47.6178 199.211 47.8145 199.779 48.1842C200.347 48.5538 200.795 49.0804 201.07 49.7L233.15 123.24C233.421 123.863 233.869 124.392 234.437 124.764C235.006 125.135 235.671 125.332 236.35 125.33H247.54C248.12 125.332 248.691 125.19 249.202 124.915C249.712 124.641 250.146 124.243 250.464 123.758C250.782 123.273 250.974 122.717 251.022 122.139C251.07 121.561 250.973 120.981 250.74 120.45L210.45 27.9Z" fill="#7F7C82"/>
<path d="M281.36 25.81H269.66C267.694 25.81 266.1 27.4039 266.1 29.37V122.15C266.1 124.116 267.694 125.71 269.66 125.71H281.36C283.326 125.71 284.92 124.116 284.92 122.15V29.37C284.92 27.4039 283.326 25.81 281.36 25.81Z" fill="#7F7C82"/>
<path d="M356.66 50.41H344.96C342.994 50.41 341.4 52.0038 341.4 53.97V122.15C341.4 124.116 342.994 125.71 344.96 125.71H356.66C358.626 125.71 360.22 124.116 360.22 122.15V53.97C360.22 52.0038 358.626 50.41 356.66 50.41Z" fill="#7F7C82"/>
<path d="M396.4 25.81H304.42C302.454 25.81 300.86 27.4039 300.86 29.37V41.07C300.86 43.0361 302.454 44.63 304.42 44.63H396.4C398.366 44.63 399.96 43.0361 399.96 41.07V29.37C399.96 27.4039 398.366 25.81 396.4 25.81Z" fill="#7F7C82"/>
<path d="M453.28 25.82H417.28C416.354 25.82 415.467 26.1877 414.812 26.8422C414.158 27.4967 413.79 28.3844 413.79 29.31V41.54C413.79 41.9983 413.88 42.4521 414.056 42.8755C414.231 43.299 414.488 43.6837 414.812 44.0078C415.136 44.3319 415.521 44.589 415.944 44.7643C416.368 44.9397 416.822 45.03 417.28 45.03H453.08C469.92 45.42 483.66 58.7 483.66 75.58C483.66 92.46 469.92 105.76 453.08 106.15H436.83C435.903 106.147 435.016 105.777 434.362 105.121C433.707 104.465 433.34 103.577 433.34 102.65V53.83C433.34 52.9035 432.973 52.0147 432.318 51.3586C431.664 50.7026 430.776 50.3327 429.85 50.33H417.62C416.693 50.3327 415.806 50.7026 415.152 51.3586C414.497 52.0147 414.13 52.9035 414.13 53.83V121.83C414.13 122.756 414.498 123.643 415.152 124.298C415.807 124.952 416.694 125.32 417.62 125.32H453.28C480.52 124.94 502.85 102.8 502.85 75.56C502.85 48.32 480.52 26.21 453.28 25.82Z" fill="#7F7C82"/>
<defs>
<linearGradient id="paint0_linear" x1="10.1368" y1="46.6239" x2="62.9451" y2="46.6239" gradientUnits="userSpaceOnUse">
<stop stop-color="#8693E2"/>
<stop offset="1" stop-color="#5928B1"/>
</linearGradient>
<linearGradient id="paint1_linear" x1="0.0110247" y1="79.7609" x2="113.114" y2="79.7609" gradientUnits="userSpaceOnUse">
<stop stop-color="#FFC41F"/>
<stop offset="1" stop-color="#FFE579"/>
</linearGradient>
<linearGradient id="paint2_linear" x1="60.2705" y1="21.5748" x2="95.8134" y2="14.1591" gradientUnits="userSpaceOnUse">
<stop stop-color="#7C3EF2"/>
<stop offset="1" stop-color="#A18DFF"/>
</linearGradient>
<linearGradient id="paint3_linear" x1="21412.7" y1="31189.5" x2="24147.7" y2="30792.9" gradientUnits="userSpaceOnUse">
<stop stop-color="#7C3EF2"/>
<stop offset="1" stop-color="#A18DFF"/>
</linearGradient>
</defs>
</svg>
